<svg width="305" height="200" viewBox="0 0 305 200" fill="none" xmlns="http://www.w3.org/2000/svg">
<path fill-rule="evenodd" clip-rule="evenodd" d="M179 163C179 158.029 183.029 154 188 154H296C300.971 154 305 158.029 305 163C305 167.971 300.971 172 296 172H188C183.029 172 179 167.971 179 163ZM208.636 70.364C205.121 66.8492 205.121 61.1508 208.636 57.636L235.636 30.636C237.324 28.9482 239.613 28 242 28C244.387 28 246.676 28.9482 248.364 30.636L275.364 57.636C278.878 61.1508 278.878 66.8492 275.364 70.364C271.849 73.8787 266.151 73.8787 262.636 70.364L251 58.7279V127C251 131.971 246.971 136 242 136C237.029 136 233 131.971 233 127V58.7279L221.364 70.364C217.849 73.8787 212.151 73.8787 208.636 70.364Z" fill="#4A5568"/>
<path d="M93.1 0L0 33.2L14.2 156.3L93.1 200L172 156.3L186.2 33.2L93.1 0Z" fill="#DD0031"/>
<path d="M93.1 0V22.2V22.1V123.4V200L172 156.3L186.2 33.2L93.1 0Z" fill="#C3002F"/>
<path d="M93.1 22.1L34.9 152.6H56.6L68.3 123.4H117.7L129.4 152.6H151.1L93.1 22.1ZM110.1 105.4H76.1L93.1 64.5L110.1 105.4Z" fill="white"/>
</svg>
